<?xml version="1.0" encoding="UTF-8"?><svg id="Layer_2" xmlns="http://www.w3.org/2000/svg" viewBox="0 0 72.59 77.82"><defs><style>.cls-1{fill:#f4f4f4;}.cls-2{fill:#fff;}.cls-3{fill:#f9f9f9;}.cls-4{fill:#f3f3f3;}</style></defs><g id="Layer_2-2"><g id="star"><g><path class="cls-2" d="M36.29,0c-.53,0-1.06,.29-1.34,.88C26.07,19.52,18.21,27.95,.82,37.48c-.54,.3-.82,.87-.82,1.43H36.29V0Z"/><path class="cls-2" d="M0,38.91c0,.57,.27,1.13,.82,1.43,17.39,9.53,25.25,17.96,34.14,36.6,.28,.58,.81,.88,1.34,.88V38.91H0Z"/><path class="cls-2" d="M36.29,77.82c.53,0,1.06-.29,1.34-.88,8.89-18.65,16.75-27.07,34.14-36.6,.54-.3,.82-.87,.82-1.43H36.29v38.91Z"/><path class="cls-2" d="M71.77,37.48C54.38,27.95,46.52,19.52,37.63,.88c-.28-.58-.81-.88-1.34-.88V38.91h36.29c0-.57-.27-1.13-.82-1.43Z"/></g><g><path class="cls-4" d="M36.29,0c-.53,0-1.06,.29-1.34,.88C26.07,19.52,18.21,27.95,.82,37.48c-.54,.3-.82,.87-.82,1.43H30.11c3.41,0,6.18-2.77,6.18-6.18V0Z"/><path class="cls-3" d="M0,38.91c0,.57,.27,1.13,.82,1.43,17.39,9.53,25.25,17.96,34.14,36.6,.28,.58,.81,.88,1.34,.88V45.09c0-3.41-2.77-6.18-6.18-6.18H0Z"/><path class="cls-1" d="M36.29,77.82c.53,0,1.06-.29,1.34-.88,8.89-18.65,16.75-27.07,34.14-36.6,.54-.3,.82-.87,.82-1.43h-30.11c-3.41,0-6.18,2.77-6.18,6.18v32.73Z"/><path class="cls-2" d="M71.77,37.48C54.38,27.95,46.52,19.52,37.63,.88c-.28-.58-.81-.88-1.34-.88V32.73c0,3.41,2.77,6.18,6.18,6.18h30.11c0-.57-.27-1.13-.82-1.43Z"/></g></g></g></svg>